<svg width="512" height="512" viewBox="0 0 512 512" fill="white" xmlns="http://www.w3.org/2000/svg">
<path fill-rule="evenodd" clip-rule="evenodd" d="M237.476 26.1065C238.12 19.6782 240.053 13.5713 241.342 12.6071C242.953 11.6428 246.819 11 249.718 11C255.839 11 256.161 11.6428 260.349 24.8209C264.215 36.3919 265.504 38.6418 269.047 38.6418C272.913 38.6418 274.202 36.3918 277.101 25.7851L277.247 25.2692C280.646 13.241 280.735 12.9285 287.088 12.9285C296.108 12.9285 299.008 16.7855 300.941 30.285C302.229 41.2131 304.162 44.4272 308.995 44.7487C310.283 44.7487 313.505 39.2846 316.727 32.8563C320.592 24.1781 323.17 20.9639 325.425 21.6067C326.092 21.7399 327.146 22.0384 328.381 22.3882C330.128 22.8829 332.236 23.4801 334.123 23.8566C339.277 24.8209 339.6 25.1423 339.6 39.606C339.6 51.4984 340.244 54.7126 343.143 55.6768C346.365 56.9625 347.009 56.3196 357.64 42.4988L362.473 36.0704L370.204 39.2846L377.936 42.4988L376.325 51.8198C372.46 75.926 375.681 79.1402 390.178 66.2835L399.521 57.9267L406.608 62.4265C410.474 64.6765 413.696 66.9264 413.696 67.5692C413.696 67.8906 411.441 73.9975 408.541 81.3901C404.031 92.9611 403.709 94.5681 406.286 97.4609C409.185 100.032 410.796 99.7108 420.783 92.9611L432.059 85.2471L438.18 91.6754L444.623 97.7823L437.213 109.675C430.126 120.924 429.481 127.674 434.958 127.674C436.569 127.674 442.368 125.424 448.166 122.853L458.798 118.031L464.274 125.745L469.751 133.138L465.885 136.995C463.63 139.245 459.12 144.066 455.898 147.923C451.388 153.709 450.744 155.637 452.677 158.208C455.254 161.101 461.697 160.78 476.516 156.28C479.093 155.637 481.026 157.566 483.926 163.351L488.114 171.387L477.16 180.065C469.429 186.172 466.207 189.707 466.529 192.6C467.174 196.136 468.462 196.457 480.382 196.136C493.59 195.814 493.59 195.814 495.846 201.921C499.389 211.885 498.745 212.849 486.181 219.92C477.16 224.42 474.261 227.313 474.261 230.527C474.261 234.384 475.872 235.348 487.792 236.634L501 238.562V247.241V255.598L488.114 260.097C478.449 263.311 474.905 265.561 474.583 268.454C473.939 271.99 475.872 273.275 486.503 276.49L499.067 280.347V289.025V297.703L485.537 299.953C473.617 301.881 468.462 304.453 468.14 308.953C468.14 309.595 471.684 311.524 475.872 313.452C479.738 315.381 485.214 318.274 487.469 320.202C491.335 323.095 491.657 324.38 489.725 331.13L487.792 338.523H473.295C461.053 338.523 458.475 339.166 457.187 342.058C456.22 345.594 458.798 348.808 471.039 357.808C476.516 361.986 476.838 362.308 474.261 368.736C473.883 369.566 473.505 370.414 473.139 371.233C471.947 373.905 470.888 376.279 470.395 376.771C470.073 377.414 463.308 376.771 455.576 375.164C444.623 372.914 441.401 372.914 440.112 374.843C437.535 379.021 438.502 381.271 446.556 389.306C451.066 393.485 454.609 397.985 454.609 399.27C454.609 400.235 452.354 403.77 449.777 407.306L444.945 413.091L432.059 407.949C420.783 403.449 418.85 403.127 416.273 406.02C413.373 408.591 413.696 409.877 420.139 419.198C427.548 430.126 427.548 433.34 419.494 440.412C416.273 443.626 415.306 443.304 403.064 435.912C391.789 429.162 389.534 428.519 387.279 431.091C384.702 433.662 385.024 435.59 389.534 445.876L394.688 457.768L387.601 462.911L380.513 468.375L369.882 459.054C361.828 451.983 357.963 450.054 355.063 451.018C352.164 451.661 351.197 453.59 351.842 455.518C353.775 461.946 357.318 478.339 356.674 478.66C356.513 478.66 355.627 479.142 354.298 479.865C352.969 480.589 351.197 481.553 349.264 482.517L342.177 486.053L337.345 480.267C334.445 477.053 329.935 471.91 327.68 469.018C324.458 464.839 322.203 463.554 318.982 464.518C315.438 465.803 314.794 467.089 316.082 479.303L317.371 492.802L311.572 494.088C308.35 494.731 304.485 495.695 302.874 496.338C300.619 497.624 297.719 494.088 292.887 484.767C287.41 474.482 285.155 471.91 281.934 472.232C278.39 472.875 277.746 475.125 276.135 486.374L276.1 486.654C274.524 499.235 274.484 499.552 269.047 499.552C265.826 499.552 261.96 500.195 260.349 500.838C257.772 501.802 256.161 498.588 252.617 487.981C248.751 476.089 247.463 473.839 243.597 473.839C239.731 473.839 238.442 475.446 235.543 485.731L232.322 497.945L222.657 498.909L213.636 498.266L211.703 484.446C209.771 472.232 209.126 470.625 205.26 469.982C201.394 469.339 199.784 471.268 195.274 480.267C189.475 491.517 187.22 492.802 177.877 489.267C173.045 487.338 172.723 486.696 172.723 472.553C172.723 459.697 172.078 457.768 168.857 456.804C165.957 456.161 163.058 458.411 157.259 466.446L149.527 477.053L141.473 473.196L133.419 469.66L136.319 456.804C139.863 440.733 139.863 439.769 135.997 438.483C134.064 437.84 129.231 440.733 122.788 446.197L112.479 454.875L106.036 450.697C102.17 448.126 99.2709 445.554 99.2709 444.59C99.2709 443.626 101.204 437.519 104.103 430.769C108.613 419.841 108.613 417.913 106.358 415.341C103.781 412.77 102.17 413.413 91.8613 419.841L80.2636 426.912L74.787 421.448C71.5654 418.555 69.3103 415.341 69.3103 414.377C69.3103 413.413 72.5319 406.984 76.3978 400.556C82.8409 390.271 83.4852 388.021 80.908 385.771C78.3307 383.2 76.3978 383.521 66.4109 388.021C60.2899 390.592 54.169 392.521 53.2025 391.878C51.9139 391.235 49.3366 388.021 47.0815 384.807L42.8935 378.7L51.9139 369.057C66.4109 353.629 63.5115 349.772 40.9606 353.629C31.9402 355.236 31.618 354.915 28.3965 347.522L24.8527 340.13L31.2959 334.987C45.4707 323.738 47.4037 321.488 46.1151 318.274C45.1486 315.381 42.2492 314.738 30.9737 314.738H17.121L15.8323 306.703C14.8659 302.203 14.8659 298.346 15.188 298.024C15.5102 297.703 20.9869 294.489 27.43 290.953C34.8396 286.775 38.7055 283.239 38.7055 280.668C38.7055 277.132 38.7055 276.811 17.4431 273.597C11.3222 272.633 11 272.311 11 263.954V255.276L23.8863 250.776C32.9066 247.884 37.0947 245.312 37.739 242.741C38.1655 241.145 38.4862 240.113 38.1985 239.294C37.6172 237.639 34.5511 236.858 24.8527 234.063L13.2551 230.527V221.849V213.171L28.0743 210.921C39.9941 209.314 43.2157 208.028 43.86 204.814C44.8264 201.6 42.5713 199.671 33.2288 195.171C27.1078 191.957 21.6312 188.422 21.6312 187.779C21.6312 186.814 22.5976 182.957 23.8863 178.779L25.8192 171.065L39.6719 171.708C51.5917 172.029 53.8468 171.708 55.7798 168.494C57.0684 166.565 57.3905 164.315 56.1019 163.673C55.1354 163.03 49.9809 159.494 44.8264 155.637L35.8061 148.887L39.6719 141.173C43.5378 133.781 44.1821 133.138 49.9809 134.424C68.0217 138.281 73.1762 138.281 74.4648 134.745C75.4313 132.495 73.1762 128.96 67.3774 122.853C63.1894 118.353 59.3235 113.532 59.3235 112.889C59.3235 111.925 60.9343 108.389 63.1894 104.532L67.3774 98.1037L81.2301 103.246C92.1834 107.425 95.7272 108.068 97.6601 106.139C99.2709 104.532 99.2709 102.604 96.3715 98.1037C89.178 85.7434 86.5703 82.1625 87.3182 79.538C87.7762 77.9311 89.492 76.6828 92.1834 73.9975L98.3044 67.8906L109.58 74.9618C121.822 82.9972 123.433 83.3186 126.654 79.4616C128.265 77.5331 127.621 74.3189 123.755 65.6407C121.178 59.5338 118.922 54.0697 118.922 53.7483C118.922 53.1055 122.144 50.8556 126.01 48.6056C134.064 43.7844 134.064 43.7844 147.272 55.9982C152.427 60.8195 155.648 62.4265 157.903 61.4623C161.769 59.8552 161.769 55.9982 158.226 39.2846C156.937 33.1777 157.259 32.8563 164.346 29.3207L171.756 25.7851L181.099 36.3919C193.985 51.177 197.206 50.5342 197.206 32.8563V19.0354L205.26 16.7855C210.093 15.4998 213.636 14.857 213.959 15.1784C214.603 15.8212 217.502 20.9639 221.046 27.3922C226.201 36.3918 228.778 38.6418 231.999 38.3203C235.543 37.6775 236.187 36.0704 237.476 26.1065ZM233.41 61.3979C241.144 60.4749 249.017 60 257 60C365.8 60 454 148.2 454 257C454 365.8 365.8 454 257 454C148.2 454 60 365.8 60 257C60 208.558 77.4843 164.2 106.487 129.892C107.082 129.152 107.684 128.413 108.291 127.674C109.498 126.229 111.125 124.474 113.028 122.534C120.532 114.502 128.701 107.098 137.447 100.411C140.757 97.7322 143.46 95.7347 144.959 94.9421C167.17 79.5568 192.697 68.6203 220.252 63.4215C222.669 62.8972 224.989 62.4528 227.167 62.1051C228.853 61.8179 230.97 61.583 233.41 61.3979Z"/>
<path d="M399.876 423.335C396.165 419.703 389.771 398.899 389.771 423.335C387.623 418.896 382.397 427.976 380.835 423.335C382.201 428.38 379.272 418.492 380.835 423.335C379.663 418.29 378.295 413.347 376.733 408.504L372.632 396.094C368.531 390.445 364.82 384.694 361.501 378.842C358.18 372.991 354.763 367.341 351.248 361.892C347.732 356.243 343.924 350.795 339.823 345.548C335.917 340.302 331.23 335.459 325.762 331.02C321.856 338.889 317.072 345.851 311.408 351.904C305.745 357.756 299.495 362.7 292.66 366.735C285.825 370.771 278.599 373.798 270.983 375.815C263.366 377.833 255.652 378.842 247.841 378.842C234.365 378.842 221.574 375.815 209.466 369.762C197.553 363.709 186.421 355.536 176.071 345.245C165.72 334.753 156.151 322.444 147.363 308.319C138.77 294.195 130.861 279.162 123.635 263.221C116.605 247.079 110.258 230.432 104.594 213.28C99.1259 196.129 94.4389 179.179 90.5331 162.431L109.281 170.301C112.21 182.206 115.823 194.313 120.12 206.621C124.611 218.729 129.884 230.533 135.938 242.034C142.188 253.536 149.121 264.331 156.737 274.42C164.549 284.509 173.239 293.388 182.809 301.055C192.573 308.521 203.216 314.474 214.739 318.913C226.261 323.15 238.857 325.269 252.528 325.269C261.12 325.269 268.542 324.058 274.791 321.637C281.235 319.014 286.508 315.483 290.61 311.043C294.711 306.403 297.738 301.055 299.691 295.002C301.839 288.747 302.913 281.987 302.913 274.723C302.913 267.055 302.034 259.69 300.277 252.628C298.714 245.364 296.468 239.008 293.539 233.559C290.805 227.91 287.582 223.47 283.872 220.242C280.357 216.812 276.548 215.096 272.448 215.096C266.393 224.782 259.265 232.349 251.063 237.797C242.861 243.245 234.365 245.969 225.577 245.969C220.304 245.969 215.227 244.96 210.345 242.942C205.462 240.925 201.068 238.2 197.162 234.77C193.257 231.138 190.132 226.901 187.788 222.058C185.445 217.215 184.273 211.969 184.273 206.319C184.273 201.073 185.152 195.927 186.91 190.882C188.667 185.636 191.108 180.995 194.233 176.959C197.553 172.722 201.459 169.393 205.951 166.971C210.638 164.348 215.813 163.037 221.476 163.037C237.881 163.037 252.918 166.164 266.589 172.419C280.454 178.675 292.465 187.352 302.62 198.449C312.775 209.547 320.684 222.764 326.348 238.099C332.011 253.233 334.843 269.779 334.843 287.738L369.703 350.088V146.39H74.1285L84.0654 115.214H421.92L435.949 146.39H399.876V423.335Z"/>
</svg>
